<svg xmlns="http://www.w3.org/2000/svg" width="1420" height="500" viewBox="0 0 1420 500" role="img" aria-label="RoofZeus"><title>RoofZeus</title><path d="M 282.764 101.425 C 280.159 102.174, 271.384 105.930, 263.264 109.773 C 255.144 113.616, 241.750 119.118, 233.500 121.998 C 200.998 133.347, 191.246 137.759, 178.024 147.092 C 173.912 149.995, 162.662 160.297, 153.024 169.986 C 134.001 189.110, 126.500 194.783, 108 204.039 C 102.225 206.928, 92.343 211.192, 86.040 213.514 L 74.579 217.735 83.540 219.817 C 104.707 224.737, 126.817 225.212, 142.500 221.085 C 165.426 215.052, 180.383 203.438, 202.499 174.500 C 227.976 141.163, 254.315 123.119, 281.455 120.410 C 298.150 118.744, 316.046 128.414, 330.185 146.740 C 333.283 150.756, 336.005 152.957, 340.704 155.248 C 352.010 160.761, 358.798 170.202, 364.590 188.469 L 367.433 197.438 369.773 189.969 C 374.115 176.105, 374.491 162.406, 370.843 151 C 368.908 144.948, 363.400 134.730, 358.712 128.494 C 354.595 123.017, 348.641 116.764, 350.389 119.753 C 351.908 122.351, 352.654 131.111, 351.854 136.962 C 350.372 147.799, 345.520 154.496, 340.178 153.078 C 337.645 152.405, 337.429 151.857, 336.187 142.933 C 333.699 125.053, 323.417 109.296, 310.309 103.275 C 303.343 100.075, 290.474 99.211, 282.764 101.425 M 275 132.547 C 256.963 136.399, 241.059 149.174, 224.368 173.218 C 207.148 198.026, 194.858 209.172, 171.492 221.172 C 144.470 235.050, 115.492 240.108, 82.500 236.706 C 59.030 234.286, 47.294 237.079, 35.699 247.843 C 26.206 256.656, 19 271.074, 19 281.255 L 19 285.300 21.828 281.400 C 31.227 268.440, 47.731 262.011, 64.330 264.844 C 72.934 266.313, 82 269.052, 82 270.183 C 82 270.632, 81.498 271, 80.884 271 C 80.271 271, 76.694 273.044, 72.935 275.543 C 57.151 286.036, 49.912 301.785, 52.156 320.750 C 53.152 329.168, 58.956 341.296, 65.592 348.824 C 69.697 353.481, 83.811 364.522, 84.622 363.711 C 84.785 363.548, 83.778 359.834, 82.383 355.457 C 79.078 345.086, 78.656 330.273, 81.432 322 C 89.899 296.758, 109.698 279.395, 144.352 266.824 C 160.135 261.099, 174.374 254.069, 185.585 246.468 C 190.900 242.864, 195.408 240.074, 195.601 240.268 C 196.631 241.298, 186.398 256.356, 181.953 260.352 C 179.108 262.910, 169.517 269.115, 160.640 274.141 C 138.495 286.679, 130.748 292.050, 122 300.933 C 108.046 315.102, 102.488 328.102, 102.518 346.500 C 102.540 359.966, 104.829 367.586, 112.133 378.507 C 122.923 394.639, 144.355 409.202, 170.860 418.410 L 181.220 422.009 171.360 411.654 C 160.237 399.973, 153.548 389.563, 149.405 377.485 C 145.544 366.231, 145.475 351.819, 149.231 341.236 C 152.480 332.083, 156.930 325.113, 162.864 319.884 C 170.748 312.937, 172.802 312.319, 180.587 314.550 C 182.111 314.987, 183.122 314.462, 184.341 312.602 C 185.975 310.109, 185.947 310.024, 183.020 308.511 C 172.148 302.888, 165.332 287.706, 171.250 282.289 C 174.643 279.184, 177.863 278.480, 178.700 280.661 C 179.080 281.651, 182.099 286.062, 185.409 290.464 L 191.428 298.467 193.279 292.484 C 194.296 289.193, 197.138 278.850, 199.594 269.500 C 202.050 260.150, 204.302 251.825, 204.599 251 C 204.916 250.117, 206.293 252.463, 207.944 256.698 C 213.863 271.885, 220.275 279.369, 235.216 288.528 C 246.409 295.390, 252.293 300.820, 255.774 307.500 L 258.379 312.500 259.628 305.500 C 261.379 295.690, 261.306 284.118, 259.461 278.890 C 257.434 273.146, 254.221 269.879, 244.179 263.358 C 228.266 253.022, 220.320 241.965, 219.271 228.696 L 218.782 222.500 224.141 218.158 C 234.317 209.914, 243.204 197.648, 250.232 182.148 C 259.157 162.466, 271.313 152.409, 290.982 148.438 C 299.265 146.765, 316.193 146.803, 321.500 148.507 C 322.624 148.868, 321.333 147.155, 318.551 144.595 C 310.056 136.778, 295.043 130.808, 284.566 131.079 C 282.880 131.123, 278.575 131.784, 275 132.547 M 281.366 193.840 C 275.235 195.959, 264.552 202.743, 260.448 207.124 L 257.500 210.271 260 209.698 C 272.629 206.804, 280.091 205.813, 285.910 206.259 C 292.987 206.802, 301.951 209.805, 306 212.989 L 308.500 214.956 300.644 214.978 C 291.704 215.003, 283.785 216.804, 273.079 221.249 C 266.312 224.057, 265.871 224.410, 268.079 225.240 C 269.410 225.741, 277.155 226.793, 285.290 227.579 C 299.681 228.968, 305.662 230.479, 309.107 233.597 C 310.612 234.959, 311.381 234.945, 316.482 233.462 C 319.614 232.552, 323.966 231.977, 326.152 232.186 L 330.128 232.565 329.582 228.033 C 328.270 217.140, 328.470 215.384, 331.469 211.452 C 333.051 209.378, 334.906 206.065, 335.592 204.090 L 336.838 200.500 331.669 199.268 C 315.810 195.490, 296.665 192.004, 291.928 192.033 C 288.942 192.051, 284.190 192.864, 281.366 193.840 M 351.649 210.797 L 348.988 217.581 352.607 226.540 C 358.615 241.414, 364 257.021, 364 259.560 C 364 263.064, 359.957 265.383, 355.257 264.573 C 340.267 261.991, 330.895 263.188, 324.500 268.499 C 321.581 270.924, 321.553 271.032, 323.441 272.496 C 324.590 273.386, 327.471 274, 330.500 274 C 335.076 274, 340.310 276.046, 338.998 277.321 C 338.724 277.588, 334.348 278.307, 329.272 278.921 C 302.053 282.209, 277.686 299.222, 270.264 320.119 C 268.595 324.819, 268.070 325.283, 257.065 331.757 C 236.281 343.987, 226.172 356.972, 225.040 372.897 L 224.500 380.500 221.124 376 C 207.099 357.308, 207.964 334.922, 223.497 314.572 C 225.499 311.949, 226.888 309.555, 226.585 309.252 C 225.674 308.341, 209.081 314.710, 203.206 318.225 C 195.102 323.075, 186.610 332.015, 182.848 339.657 C 177.195 351.139, 177.830 368.337, 184.301 379 C 193.363 393.934, 218.792 409.763, 267 430.480 C 310.002 448.959, 328.384 463.818, 337.542 487.500 C 338.167 489.114, 338.556 488.536, 339.562 484.500 C 342.177 474.007, 340.687 463.477, 335.245 454 C 333.824 451.525, 326.971 443.650, 320.015 436.500 C 313.059 429.350, 306.163 421.439, 304.689 418.920 C 295.952 403.988, 294.908 384.901, 302.060 370.882 C 303.204 368.640, 303.985 366.652, 303.796 366.463 C 303.148 365.814, 293.496 372.222, 289.644 375.859 C 281.101 383.926, 277.691 392.734, 278.176 405.483 C 278.354 410.170, 278.197 414.004, 277.827 414.002 C 277.457 414.001, 275.164 411.637, 272.732 408.750 C 254.516 387.128, 247.525 365.893, 253.884 351.500 C 255.821 347.117, 264.316 337, 266.060 337 C 266.410 337, 265.871 342.288, 264.863 348.750 C 263.855 355.212, 263.024 360.785, 263.015 361.132 C 263.007 361.480, 267.761 357.210, 273.581 351.643 C 281.956 343.631, 285.589 339.220, 291.015 330.476 C 295.086 323.914, 300.255 317.154, 303.745 313.825 C 313.572 304.451, 326.728 299, 339.524 299 C 354.932 299, 361.943 307.863, 357.939 322.280 L 356.889 326.060 353.695 321.283 C 349.958 315.695, 345.771 313.856, 336.500 313.732 C 322.733 313.547, 311.390 321.344, 307.612 333.590 C 307.015 335.524, 307.454 335.436, 313.456 332.415 C 323.056 327.583, 333.817 325.417, 340.638 326.943 C 348.626 328.731, 352.036 332.493, 355.329 343.149 C 357.608 350.523, 358.967 352.955, 364.552 359.649 C 373.342 370.184, 377.001 377.970, 377.737 387.707 L 378.310 395.285 380.021 391.893 C 386.772 378.501, 384.860 362.925, 374.642 348.070 C 368.721 339.463, 367.875 335.021, 368.632 316.528 C 369.368 298.554, 368.452 293.232, 363.201 284.968 L 360.321 280.436 362.694 278.646 C 364 277.661, 366.852 274.598, 369.034 271.838 C 374.332 265.136, 374.257 262.025, 368.433 246.717 L 363.866 234.713 367.326 229.606 C 372.342 222.206, 374.162 218.204, 373.810 215.350 C 373.548 213.220, 372.193 212.293, 365 209.322 C 360.325 207.391, 356.007 205.407, 355.405 204.912 C 354.662 204.302, 353.456 206.193, 351.649 210.797 M 570.994 223.934 C 563.778 226.129, 553.344 235.538, 550.453 242.457 C 549.239 245.363, 549 255.433, 549 303.652 C 549 370.007, 548.393 365.588, 558.823 375.121 C 568.262 383.749, 566.891 383.500, 605 383.500 C 637.985 383.500, 638.572 383.464, 643.193 381.188 C 649.285 378.188, 659.564 367.231, 660.942 362.269 C 661.613 359.852, 661.991 338.437, 661.994 302.566 C 662.001 237.756, 662.768 242.740, 651.090 231.724 C 646.008 226.930, 643.134 225.019, 639.703 224.156 C 634.518 222.850, 575.187 222.659, 570.994 223.934 M 696.234 224.098 C 692.555 225.188, 679.612 236.916, 677.428 241.140 C 676.238 243.440, 676 253.735, 676 302.885 C 676 341.815, 676.359 362.827, 677.055 364.685 C 678.490 368.513, 688.586 378.679, 693.500 381.244 C 697.238 383.195, 699.435 383.357, 727 383.706 C 746.594 383.954, 758.848 383.686, 763.492 382.909 C 770.251 381.777, 770.728 381.501, 777.838 374.619 C 781.883 370.703, 785.820 366.292, 786.587 364.817 C 787.727 362.624, 788.019 351.470, 788.179 303.817 C 788.405 237.116, 789.161 242.873, 778.849 232.777 C 768.907 223.043, 771.250 223.526, 733 223.315 C 713.735 223.209, 698.112 223.542, 696.234 224.098 M 423 303.500 L 423 383 443 383 L 463 383 463 357 L 463 331 468.808 331 L 474.616 331 487.404 357 L 500.193 383 521.600 383 L 543.007 383 529.419 355.837 C 517.786 332.585, 516.062 328.545, 517.439 327.774 C 522.372 325.014, 531.013 316.604, 532.880 312.748 C 534.899 308.577, 534.999 306.922, 534.978 277.934 C 534.958 250.519, 534.773 247.103, 533.115 243.500 C 530.872 238.627, 519.435 227.498, 514.591 225.474 C 511.665 224.251, 503.560 224, 467.032 224 L 423 224 423 303.500 M 802 303.500 L 802 383 822 383 L 842 383 842 352.628 L 842 322.255 861 321.526 L 880 320.797 880 303.920 L 880 287.043 860.964 286.772 L 841.928 286.500 841.846 276.500 C 841.800 271, 841.816 264.821, 841.881 262.768 L 842 259.036 866.048 258.768 L 890.096 258.500 899.100 241.250 L 908.104 224 855.052 224 L 802 224 802 303.500 M 463.227 277.750 L 463.500 295.500 470.500 295.826 C 474.350 296.005, 481.663 295.850, 486.750 295.482 L 496 294.813 496 277.407 L 496 260 479.477 260 L 462.954 260 463.227 277.750 M 589 303.500 L 589 347 605.500 347 L 622 347 622 303.500 L 622 260 605.500 260 L 589 260 589 303.500 M 715.696 260.750 C 715.464 261.163, 715.325 280.625, 715.387 304 L 715.500 346.500 731.750 346.775 L 748 347.050 748 303.525 L 748 260 732.059 260 C 723.291 260, 715.928 260.337, 715.696 260.750 M 341.739 365.818 C 337.789 371.787, 333.378 380.983, 331.612 386.932 C 328.712 396.702, 329.911 411.131, 334.333 419.678 C 335.237 421.426, 339.106 426.231, 342.930 430.355 C 351.427 439.519, 354.800 444.724, 357.177 452.339 C 359.176 458.741, 359.593 470.445, 358.019 475.935 L 357.038 479.356 360.594 475.928 C 365.345 471.349, 372.334 460.739, 375.051 453.980 C 378.078 446.451, 378.785 431.978, 376.584 422.613 C 374.544 413.934, 369.548 404.376, 362.385 395.450 C 351.632 382.050, 346 371.579, 346 364.989 C 346 360.987, 344.779 361.224, 341.739 365.818" stroke="none" fill="#081827" fill-rule="evenodd"/><path d="M 269.500 38.658 C 198.495 84.092, 99.476 147.766, 83.827 158.056 L 69.155 167.703 80.327 168.347 C 86.472 168.701, 97.853 168.993, 105.618 168.995 L 119.736 169 148.118 151.639 C 170.343 138.044, 223.239 106.638, 254 88.773 C 255.925 87.655, 269.354 79.786, 283.843 71.287 L 310.186 55.834 317.843 63.180 C 322.054 67.221, 345.300 89.459, 369.500 112.600 C 393.700 135.740, 426.550 167.345, 442.500 182.832 L 471.500 210.991 498.500 210.957 L 525.500 210.924 516.919 202.712 C 512.199 198.195, 498.143 184.825, 485.683 173 L 463.028 151.500 462.764 111.500 L 462.500 71.500 440.250 71.231 L 418 70.962 418 89.481 C 418 99.666, 417.663 107.992, 417.250 107.982 C 416.467 107.963, 409.752 101.678, 350.236 45.250 C 330.367 26.413, 313.749 11.032, 313.306 11.072 C 312.863 11.111, 293.150 23.525, 269.500 38.658 M 923.629 238.634 C 918.199 248.302, 913.536 257.058, 913.265 258.093 C 912.792 259.904, 914.069 259.984, 947.711 260.237 L 982.648 260.500 965.574 283.552 C 923.928 339.778, 914.365 352.773, 904.034 367.178 C 897.990 375.605, 893.034 382.840, 893.022 383.257 C 893.010 383.673, 925.428 383.898, 965.063 383.757 L 1037.126 383.500 1046.366 366 L 1055.607 348.500 1049.554 347.867 C 1046.224 347.519, 1029.515 347.181, 1012.421 347.117 L 981.343 347 972.603 353.098 C 967.796 356.452, 963.671 359.005, 963.438 358.771 C 963.204 358.537, 964.518 356.580, 966.359 354.423 C 972.074 347.723, 1062 222.685, 1062 221.438 C 1062 221.197, 1033.088 221.013, 997.750 221.028 L 933.500 221.056 923.629 238.634 M 1312.500 224.635 C 1308.530 226.732, 1297.279 237.711, 1295.219 241.500 C 1293.825 244.062, 1293.580 248.517, 1293.543 272 C 1293.504 296.954, 1293.672 299.815, 1295.357 302.907 C 1298.003 307.763, 1305.741 315.829, 1310.946 319.157 L 1315.392 322 1335.089 322 C 1349.935 322, 1354.899 322.308, 1355.246 323.250 C 1355.498 323.938, 1355.489 329.563, 1355.224 335.750 L 1354.743 347 1327.998 347 L 1301.253 347 1293.626 364.106 C 1289.432 373.514, 1286 381.746, 1286 382.399 C 1286 383.293, 1296.289 383.651, 1327.559 383.847 C 1377.904 384.162, 1376.159 384.459, 1386.697 373.788 C 1390.655 369.780, 1394.368 365.233, 1394.947 363.685 C 1395.585 361.979, 1396 350.639, 1396 334.903 C 1396 304.602, 1396.013 304.659, 1386.707 295.175 C 1377.179 285.466, 1377.554 285.583, 1354.750 285.174 L 1335 284.819 1335 272.559 L 1335 260.299 1344.154 259.650 C 1349.188 259.292, 1360.219 259, 1368.666 259 L 1384.025 259 1386.419 253.750 C 1387.735 250.863, 1391.318 243.126, 1394.380 236.557 C 1397.443 229.989, 1399.847 224.538, 1399.724 224.445 C 1399.601 224.352, 1380.600 224, 1357.500 223.663 C 1320.324 223.121, 1315.155 223.232, 1312.500 224.635 M 1065 304.160 L 1065 384.319 1087.662 383.660 C 1100.125 383.297, 1121.736 383, 1135.685 383 L 1161.046 383 1160.773 365.250 L 1160.500 347.500 1133.250 347.234 L 1106 346.968 1106 334.600 L 1106 322.232 1126 321.500 L 1146 320.768 1146 302.884 L 1146 285 1126 285 L 1106 285 1106 272.636 L 1106 260.272 1110.640 259.636 C 1113.191 259.286, 1125.566 259, 1138.140 259 L 1161 259 1161 241.500 L 1161 224 1113 224 L 1065 224 1065 304.160 M 1173 292.935 C 1173 338.813, 1173.353 362.811, 1174.054 364.685 C 1175.558 368.698, 1186.766 379.881, 1191.500 382.090 C 1195.129 383.783, 1198.361 383.958, 1226.384 383.978 C 1247.454 383.993, 1258.576 383.620, 1261.384 382.804 C 1267.130 381.134, 1280.341 368.037, 1281.883 362.482 C 1282.640 359.757, 1282.991 337.281, 1282.994 291.250 L 1283 224 1262.500 224 L 1242 224 1242 285.500 L 1242 347 1227.500 347 L 1213 347 1213 285.500 L 1213 224 1193 224 L 1173 224 1173 292.935" stroke="none" fill="#D6AC58" fill-rule="evenodd"/></svg>